<svg width="24" height="24" viewBox="0 0 24 24" fill="none" xmlns="http://www.w3.org/2000/svg">
<path d="M18.7372 17.4753L15.7159 14.463C16.6907 13.2211 17.2196 11.6876 17.2176 10.1088C17.2176 8.70283 16.8007 7.32841 16.0196 6.15937C15.2385 4.99033 14.1282 4.07918 12.8293 3.54113C11.5303 3.00308 10.1009 2.8623 8.72196 3.1366C7.34299 3.41089 6.07631 4.08794 5.08213 5.08213C4.08794 6.07631 3.41089 7.34299 3.1366 8.72196C2.8623 10.1009 3.00308 11.5303 3.54113 12.8293C4.07918 14.1282 4.99033 15.2385 6.15937 16.0196C7.32841 16.8007 8.70283 17.2176 10.1088 17.2176C11.6876 17.2196 13.2211 16.6907 14.463 15.7159L17.4753 18.7372C17.5579 18.8204 17.6562 18.8865 17.7645 18.9317C17.8728 18.9768 17.9889 19 18.1062 19C18.2236 19 18.3397 18.9768 18.448 18.9317C18.5563 18.8865 18.6545 18.8204 18.7372 18.7372C18.8204 18.6545 18.8865 18.5563 18.9317 18.448C18.9768 18.3397 19 18.2236 19 18.1062C19 17.9889 18.9768 17.8728 18.9317 17.7645C18.8865 17.6562 18.8204 17.5579 18.7372 17.4753ZM4.77721 10.1088C4.77721 9.05433 5.0899 8.02352 5.67575 7.14674C6.26159 6.26996 7.09428 5.58659 8.0685 5.18305C9.04273 4.77952 10.1147 4.67393 11.149 4.87965C12.1832 5.08538 13.1332 5.59316 13.8788 6.3388C14.6245 7.08444 15.1323 8.03444 15.338 9.06868C15.5437 10.1029 15.4381 11.1749 15.0346 12.1491C14.6311 13.1234 13.9477 13.9561 13.0709 14.5419C12.1941 15.1277 11.1633 15.4404 10.1088 15.4404C8.69479 15.4404 7.33867 14.8787 6.3388 13.8788C5.33893 12.879 4.77721 11.5229 4.77721 10.1088Z" fill="white"/>
</svg>
