<svg width="16" height="16" viewBox="0 0 16 16" fill="none" xmlns="http://www.w3.org/2000/svg">
<path d="M13.4053 8.00101C13.4053 7.65478 13.3695 7.31851 13.3098 6.99019L14.9215 5.60131L13.4172 2.99666L11.4095 3.69906C10.8962 3.26329 10.3052 2.92104 9.66049 2.69023L9.26253 0.596954H6.25395L5.85599 2.69023C5.2113 2.92104 4.61834 3.26329 4.10696 3.69906L2.09925 2.99666L0.594955 5.60131L2.2067 6.99019C2.147 7.31851 2.11118 7.65478 2.11118 8.00101C2.11118 8.34723 2.147 8.68351 2.2067 9.01183L0.594955 10.4007L2.09925 13.0054L4.10696 12.303C4.62033 12.7387 5.2113 13.081 5.85599 13.3118L6.25395 15.4051H9.26253L9.66049 13.3118C10.3052 13.081 10.8982 12.7387 11.4095 12.303L13.4172 13.0054L14.9215 10.4007L13.3098 9.01183C13.3695 8.68351 13.4053 8.34723 13.4053 8.00101Z" stroke="white" stroke-linecap="round" stroke-linejoin="round"/>
<path d="M7.76023 10.3052C9.0328 10.3052 10.0644 9.27357 10.0644 8.001C10.0644 6.72843 9.0328 5.69681 7.76023 5.69681C6.48766 5.69681 5.45604 6.72843 5.45604 8.001C5.45604 9.27357 6.48766 10.3052 7.76023 10.3052Z" stroke="white" stroke-linecap="round" stroke-linejoin="round"/>
</svg>
