<svg width="25" height="24" viewBox="0 0 25 24" fill="none" xmlns="http://www.w3.org/2000/svg">
<path d="M19.2126 17.4753L16.1914 14.463C17.1662 13.2211 17.6951 11.6876 17.6931 10.1088C17.6931 8.70283 17.2762 7.32841 16.4951 6.15937C15.7139 4.99033 14.6037 4.07918 13.3047 3.54113C12.0057 3.00308 10.5764 2.8623 9.19743 3.1366C7.81845 3.41089 6.55178 4.08794 5.55759 5.08213C4.56341 6.07631 3.88636 7.34299 3.61206 8.72196C3.33777 10.1009 3.47854 11.5303 4.01659 12.8293C4.55464 14.1282 5.4658 15.2385 6.63484 16.0196C7.80388 16.8007 9.1783 17.2176 10.5843 17.2176C12.163 17.2196 13.6966 16.6907 14.9384 15.7159L17.9508 18.7372C18.0334 18.8204 18.1317 18.8865 18.24 18.9317C18.3483 18.9768 18.4644 19 18.5817 19C18.699 19 18.8152 18.9768 18.9234 18.9317C19.0317 18.8865 19.13 18.8204 19.2126 18.7372C19.2959 18.6545 19.362 18.5563 19.4071 18.448C19.4522 18.3397 19.4755 18.2236 19.4755 18.1062C19.4755 17.9889 19.4522 17.8728 19.4071 17.7645C19.362 17.6562 19.2959 17.5579 19.2126 17.4753ZM5.25267 10.1088C5.25267 9.05433 5.56537 8.02352 6.15121 7.14674C6.73706 6.26996 7.56974 5.58659 8.54397 5.18305C9.51819 4.77952 10.5902 4.67393 11.6244 4.87965C12.6587 5.08538 13.6087 5.59316 14.3543 6.3388C15.0999 7.08444 15.6077 8.03444 15.8135 9.06868C16.0192 10.1029 15.9136 11.1749 15.5101 12.1491C15.1065 13.1234 14.4232 13.9561 13.5464 14.5419C12.6696 15.1277 11.6388 15.4404 10.5843 15.4404C9.17025 15.4404 7.81414 14.8787 6.81427 13.8788C5.81439 12.879 5.25267 11.5229 5.25267 10.1088Z" fill="#3B2E6D"/>
</svg>
