<svg width="112" height="28" viewBox="0 0 112 28" fill="none" xmlns="http://www.w3.org/2000/svg">
<path d="M2.064 25.3V22.78H5.76C6.744 22.78 7.176 22.564 7.32 21.58L7.536 20.068H4.632C2.352 20.068 1.2 19.108 1.2 16.276V8.14H4.56V16.54C4.56 17.26 4.824 17.572 5.808 17.572H7.872C8.328 14.5 8.832 11.188 9.312 8.14H12.648C11.976 12.508 11.28 17.188 10.56 21.628C10.248 23.5 8.784 25.3 6.048 25.3H2.064ZM15.165 10.156H25.869V12.7H15.165V10.156ZM37.5381 3.076C40.2261 3.076 40.7541 4.252 40.7541 6.268V8.692C40.7541 10.156 40.1061 10.924 39.3621 11.26C40.2501 11.548 41.1381 12.34 41.1381 13.78V16.396C41.1381 17.98 38.5461 20.5 37.1301 20.5H29.1141V5.26C29.1141 4.78 29.2101 4.588 29.3781 4.468L30.7941 3.292C31.0101 3.1 31.2981 3.076 31.5381 3.076H37.5381ZM37.7781 13.66C37.7781 12.844 37.3461 12.7 36.8661 12.7H32.4741V17.956H36.2661C36.7941 17.956 37.7781 16.948 37.7781 16.396V13.66ZM32.4741 5.596V10.156H36.2181C37.2501 10.156 37.3941 9.772 37.3941 9.028V6.244C37.3941 5.836 37.2501 5.596 36.6501 5.596H32.4741ZM52.8881 12.7H46.9361V17.956H53.8241V20.5H43.5281V5.26C43.5281 4.78 43.6241 4.588 43.7921 4.468L45.2081 3.292C45.4241 3.1 45.7121 3.076 45.9521 3.076H53.8241V5.62H46.9361V10.156H53.4401L52.8881 12.7Z" fill="#2E2559"/>
<path d="M76.8149 20.7265H74.7293V11.6865H72.8508V19.884H70.7928V3.39227H72.8508V9.9047H74.7293V3.0884H76.8149V20.7265ZM62.1326 4.99447H69.0663V16.1892H62.1326V4.99447ZM67.029 14.4765V6.70718H64.1699V14.4765H67.029ZM93.1332 10.5331H80.8542V3.91713H83.0296V8.77901H93.1332V10.5331ZM78.8722 12.7155H94.9564V14.4627H91.1028V20.7265H88.9136V14.4627H84.9219V20.7265H82.7465V14.4627H78.8722V12.7155ZM110.936 11.9558H108.775V8.51657H105.584C105.441 9.15193 105.158 9.71133 104.735 10.1948C104.311 10.6736 103.782 11.0465 103.146 11.3135C102.511 11.576 101.813 11.7072 101.054 11.7072C100.17 11.7072 99.3733 11.5345 98.6642 11.1892C97.9552 10.8439 97.3981 10.3628 96.993 9.74586C96.5924 9.12891 96.3944 8.42679 96.399 7.6395C96.3944 6.86602 96.5924 6.17541 96.993 5.56768C97.3981 4.95534 97.9552 4.47882 98.6642 4.13812C99.3733 3.79742 100.17 3.62707 101.054 3.62707C101.813 3.62707 102.509 3.75829 103.139 4.02072C103.775 4.27854 104.304 4.64457 104.728 5.11878C105.151 5.5884 105.434 6.13398 105.577 6.75552H108.775V3.0884H110.936V11.9558ZM98.464 7.6395C98.464 8.09991 98.5745 8.50506 98.7955 8.85497C99.0164 9.20028 99.3226 9.46731 99.714 9.65608C100.105 9.84484 100.552 9.93923 101.054 9.93923C101.542 9.93923 101.979 9.84484 102.366 9.65608C102.757 9.46731 103.061 9.20028 103.277 8.85497C103.498 8.50506 103.609 8.09991 103.609 7.6395C103.609 7.19291 103.498 6.79926 103.277 6.45856C103.057 6.11786 102.753 5.85543 102.366 5.67127C101.979 5.48711 101.542 5.39503 101.054 5.39503C100.552 5.39503 100.105 5.48711 99.714 5.67127C99.3226 5.85543 99.0164 6.11786 98.7955 6.45856C98.5745 6.79926 98.464 7.19291 98.464 7.6395ZM99.2996 12.8052H110.936V17.384H101.496V18.7997H111.503V20.5193H99.3203V15.7818H108.775V14.4834H99.2996V12.8052Z" fill="#2E2559"/>
</svg>
